<svg xmlns="http://www.w3.org/2000/svg" xmlns:xlink="http://www.w3.org/1999/xlink" width="512" zoomAndPan="magnify" viewBox="0 0 384 383.999986" height="512" preserveAspectRatio="xMidYMid meet" version="1.0"><path fill="#e7f2f1" d="M 364.613281 336.910156 C 364.832031 335.796875 364.953125 334.648438 364.953125 333.46875 L 364.953125 272.867188 C 364.953125 267.320312 362.539062 262.359375 358.730469 258.917969 L 358.730469 174.511719 C 358.730469 159.445312 346.527344 147.234375 331.480469 147.234375 L 222.90625 147.234375 L 222.90625 68 C 222.90625 52.9375 210.703125 40.722656 195.652344 40.722656 L 124.085938 40.722656 L 124.085938 27.300781 C 124.085938 16.914062 115.695312 8.515625 105.320312 8.515625 L 37.78125 8.515625 C 27.4375 8.515625 19.046875 16.914062 19.046875 27.300781 L 19.046875 87.871094 C 19.046875 89.046875 19.167969 90.195312 19.386719 91.3125 L 0 130.371094 L 25.269531 117.878906 L 25.269531 187.5625 C 25.269531 202.625 37.472656 214.839844 52.519531 214.839844 L 170.011719 214.839844 L 170.011719 294.070312 C 170.011719 309.136719 182.214844 321.351562 197.265625 321.351562 L 259.914062 321.351562 L 259.914062 333.46875 C 259.914062 343.855469 268.304688 352.253906 278.679688 352.253906 L 336.09375 352.253906 L 384 375.96875 Z M 364.613281 336.910156 " fill-opacity="1" fill-rule="nonzero"/><path fill="#e15c63" d="M 364.613281 336.910156 L 384 375.96875 L 336.09375 352.253906 L 278.679688 352.253906 C 268.304688 352.253906 259.914062 343.855469 259.914062 333.46875 L 259.914062 272.867188 C 259.914062 262.515625 268.304688 254.113281 278.679688 254.113281 L 346.21875 254.113281 C 351.019531 254.113281 355.417969 255.945312 358.730469 258.917969 C 362.539062 262.359375 364.953125 267.320312 364.953125 272.867188 L 364.953125 333.46875 C 364.953125 334.648438 364.832031 335.796875 364.613281 336.910156 Z M 364.613281 336.910156 " fill-opacity="1" fill-rule="nonzero"/><path fill="#ffc05a" d="M 72.339844 22.929688 L 90.921875 71.101562 L 53.761719 71.101562 Z M 72.339844 22.929688 " fill-opacity="1" fill-rule="nonzero"/><path fill="#ffc05a" d="M 53.761719 71.101562 L 90.921875 71.101562 L 72.339844 22.929688 Z M 124.085938 40.722656 L 124.085938 87.871094 C 124.085938 98.253906 115.695312 106.65625 105.320312 106.65625 L 47.90625 106.65625 L 25.269531 117.878906 L 0 130.371094 L 19.386719 91.3125 C 19.167969 90.195312 19.046875 89.046875 19.046875 87.871094 L 19.046875 27.300781 C 19.046875 16.914062 27.4375 8.515625 37.78125 8.515625 L 105.320312 8.515625 C 115.695312 8.515625 124.085938 16.914062 124.085938 27.300781 Z M 124.085938 40.722656 " fill-opacity="1" fill-rule="nonzero"/><path fill="#1ea6bc" d="M 222.90625 68 L 222.90625 147.234375 L 197.265625 147.234375 C 182.214844 147.234375 170.011719 159.445312 170.011719 174.511719 L 170.011719 214.839844 L 52.519531 214.839844 C 37.472656 214.839844 25.269531 202.625 25.269531 187.5625 L 25.269531 117.878906 L 47.90625 106.65625 L 105.320312 106.65625 C 115.695312 106.65625 124.085938 98.253906 124.085938 87.871094 L 124.085938 40.722656 L 195.652344 40.722656 C 210.703125 40.722656 222.90625 52.9375 222.90625 68 Z M 222.90625 68 " fill-opacity="1" fill-rule="nonzero"/><path fill="#1498b7" d="M 139.726562 40.722656 C 139.726562 40.722656 139.726562 49.527344 139.726562 88.523438 C 139.726562 120.519531 115.355469 121.285156 115.355469 121.285156 L 53.761719 121.285156 L 25.269531 135.515625 L 25.269531 117.878906 L 47.90625 106.65625 L 105.320312 106.65625 C 115.695312 106.65625 124.085938 98.253906 124.085938 87.871094 L 124.085938 40.722656 Z M 139.726562 40.722656 " fill-opacity="1" fill-rule="nonzero"/><path fill="#d6eae8" d="M 358.730469 240.941406 L 358.730469 258.917969 C 355.417969 255.945312 351.019531 254.113281 346.21875 254.113281 L 278.679688 254.113281 C 268.304688 254.113281 259.914062 262.515625 259.914062 272.867188 L 259.914062 321.351562 L 241.207031 321.351562 L 241.207031 264.34375 C 241.207031 264.34375 238.699219 240.941406 272.421875 240.941406 C 307.820312 240.941406 358.730469 240.941406 358.730469 240.941406 Z M 358.730469 240.941406 " fill-opacity="1" fill-rule="nonzero"/><path fill="#e7f2f1" d="M 346.34375 279.160156 L 318.222656 279.160156 L 318.222656 264.34375 C 318.222656 262.628906 316.835938 261.242188 315.128906 261.242188 C 313.417969 261.242188 312.03125 262.628906 312.03125 264.34375 L 312.03125 279.160156 L 285.089844 279.160156 C 283.378906 279.160156 281.992188 280.546875 281.992188 282.261719 C 281.992188 283.976562 283.378906 285.359375 285.089844 285.359375 L 327.980469 285.359375 C 326.144531 296.886719 322.078125 306.648438 315.832031 314.472656 C 310.382812 308.5 306.074219 301.304688 303.15625 292.867188 C 302.59375 291.25 300.832031 290.398438 299.214844 290.953125 C 297.601562 291.515625 296.746094 293.28125 297.304688 294.894531 C 300.578125 304.351562 305.394531 312.492188 311.613281 319.171875 C 305.074219 325.621094 296.546875 330.652344 286.183594 334.121094 C 284.558594 334.664062 283.683594 336.417969 284.226562 338.046875 C 284.660156 339.339844 285.871094 340.164062 287.164062 340.164062 C 287.488281 340.164062 287.820312 340.109375 288.144531 340 C 299.5 336.203125 308.882812 330.621094 316.109375 323.433594 C 322.398438 328.988281 329.859375 333.445312 338.476562 336.566406 C 338.824219 336.695312 339.179688 336.753906 339.53125 336.753906 C 340.796875 336.753906 341.984375 335.96875 342.441406 334.710938 C 343.023438 333.097656 342.191406 331.320312 340.582031 330.738281 C 332.730469 327.894531 325.949219 323.859375 320.253906 318.835938 C 327.585938 309.867188 332.277344 298.632812 334.234375 285.359375 L 346.339844 285.359375 C 348.050781 285.359375 349.4375 283.972656 349.4375 282.257812 C 349.4375 280.542969 348.050781 279.160156 346.34375 279.160156 Z M 346.34375 279.160156 " fill-opacity="1" fill-rule="nonzero"/><path fill="#e7f2f1" d="M 75.230469 21.8125 C 74.769531 20.617188 73.621094 19.828125 72.339844 19.828125 C 71.0625 19.828125 69.914062 20.617188 69.453125 21.8125 L 44.152344 87.40625 C 43.535156 89.003906 44.332031 90.800781 45.925781 91.414062 C 47.523438 92.035156 49.3125 91.238281 49.929688 89.640625 L 55.882812 74.203125 L 88.796875 74.203125 L 94.753906 89.640625 C 95.226562 90.867188 96.398438 91.625 97.640625 91.625 C 98.011719 91.625 98.390625 91.558594 98.757812 91.417969 C 100.351562 90.804688 101.144531 89.007812 100.53125 87.410156 Z M 58.273438 68 L 72.339844 31.535156 L 86.40625 68 Z M 58.273438 68 " fill-opacity="1" fill-rule="nonzero"/><path fill="#c3ddda" d="M 330.640625 193.449219 L 204.605469 193.449219 C 202.894531 193.449219 201.507812 194.835938 201.507812 196.550781 C 201.507812 198.265625 202.894531 199.652344 204.605469 199.652344 L 330.640625 199.652344 C 332.351562 199.652344 333.738281 198.265625 333.738281 196.550781 C 333.738281 194.835938 332.351562 193.449219 330.640625 193.449219 Z M 330.640625 193.449219 " fill-opacity="1" fill-rule="nonzero"/><path fill="#c3ddda" d="M 295.703125 229.378906 L 204.660156 227.792969 C 202.851562 227.804688 201.539062 229.128906 201.507812 230.839844 C 201.480469 232.550781 202.839844 233.960938 204.546875 233.992188 L 295.59375 235.578125 C 295.613281 235.578125 295.628906 235.578125 295.648438 235.578125 C 297.332031 235.578125 298.714844 234.222656 298.746094 232.535156 C 298.773438 230.820312 297.414062 229.410156 295.703125 229.378906 Z M 295.703125 229.378906 " fill-opacity="1" fill-rule="nonzero"/><path fill="#0d87a3" d="M 194.105469 93.792969 L 139.726562 93.792969 C 138.015625 93.792969 136.628906 95.175781 136.628906 96.890625 C 136.628906 98.605469 138.015625 99.992188 139.726562 99.992188 L 194.105469 99.992188 C 195.816406 99.992188 197.203125 98.605469 197.203125 96.890625 C 197.203125 95.175781 195.816406 93.792969 194.105469 93.792969 Z M 194.105469 93.792969 " fill-opacity="1" fill-rule="nonzero"/><path fill="#0d87a3" d="M 194.105469 123.457031 L 57.570312 123.457031 C 55.859375 123.457031 54.472656 124.84375 54.472656 126.558594 C 54.472656 128.269531 55.859375 129.65625 57.570312 129.65625 L 194.105469 129.65625 C 195.816406 129.65625 197.203125 128.269531 197.203125 126.558594 C 197.203125 124.84375 195.816406 123.457031 194.105469 123.457031 Z M 194.105469 123.457031 " fill-opacity="1" fill-rule="nonzero"/><path fill="#0d87a3" d="M 133.472656 149.679688 L 57.570312 149.679688 C 55.859375 149.679688 54.472656 151.066406 54.472656 152.78125 C 54.472656 154.496094 55.859375 155.882812 57.570312 155.882812 L 133.472656 155.882812 C 135.179688 155.882812 136.566406 154.496094 136.566406 152.78125 C 136.566406 151.066406 135.179688 149.679688 133.472656 149.679688 Z M 133.472656 149.679688 " fill-opacity="1" fill-rule="nonzero"/></svg>