<svg xmlns="http://www.w3.org/2000/svg" xmlns:xlink="http://www.w3.org/1999/xlink" width="512" zoomAndPan="magnify" viewBox="0 0 384 383.999986" height="512" preserveAspectRatio="xMidYMid meet" version="1.0"><defs><clipPath id="id1"><path d="M 11.375 11.375 L 372.875 11.375 L 372.875 372.875 L 11.375 372.875 Z M 11.375 11.375 " clip-rule="nonzero"/></clipPath></defs><rect x="-38.4" width="460.8" fill="#ffffff" y="-38.399999" height="460.799983" fill-opacity="1"/><rect x="-38.4" width="460.8" fill="#ffffff" y="-38.399999" height="460.799983" fill-opacity="1"/><rect x="-38.4" width="460.8" fill="#ffffff" y="-38.399999" height="460.799983" fill-opacity="1"/><rect x="-38.4" width="460.8" fill="#ffffff" y="-38.399999" height="460.799983" fill-opacity="1"/><g clip-path="url(#id1)"><path fill="#000000" d="M 192.035156 11.375 C 92.171875 11.375 11.375 92.261719 11.375 192.125 C 11.375 291.988281 92.171875 372.875 192.035156 372.875 C 291.898438 372.875 372.875 291.988281 372.875 192.125 C 372.875 92.261719 291.898438 11.375 192.035156 11.375 Z M 317.203125 119.824219 L 263.882812 119.824219 C 258.007812 97.230469 249.785156 75.542969 238.941406 55.476562 C 272.199219 66.867188 299.851562 89.910156 317.203125 119.824219 Z M 192.125 48.15625 C 207.21875 69.847656 218.964844 93.976562 226.648438 119.824219 L 157.601562 119.824219 C 165.285156 93.976562 177.03125 69.847656 192.125 48.15625 Z M 52.226562 228.273438 C 49.242188 216.707031 47.523438 204.597656 47.523438 192.125 C 47.523438 179.652344 49.242188 167.542969 52.226562 155.976562 L 113.226562 155.976562 C 111.78125 167.8125 110.789062 179.835938 110.789062 192.125 C 110.789062 204.417969 111.78125 216.4375 113.316406 228.273438 Z M 66.957031 264.425781 L 120.277344 264.425781 C 126.152344 287.019531 134.375 308.707031 145.21875 328.863281 C 111.960938 317.476562 84.308594 294.339844 66.957031 264.425781 Z M 120.277344 119.824219 L 66.957031 119.824219 C 84.308594 89.910156 111.960938 66.773438 145.21875 55.386719 C 134.375 75.542969 126.152344 97.230469 120.277344 119.824219 Z M 192.125 336.09375 C 177.121094 314.402344 165.375 290.273438 157.601562 264.425781 L 226.648438 264.425781 C 218.875 290.273438 207.128906 314.402344 192.125 336.09375 Z M 234.421875 228.273438 L 149.828125 228.273438 C 148.113281 216.4375 146.9375 204.417969 146.9375 192.125 C 146.9375 179.835938 148.113281 167.8125 149.828125 155.976562 L 234.421875 155.976562 C 236.136719 167.8125 237.3125 179.835938 237.3125 192.125 C 237.3125 204.417969 236.136719 216.4375 234.421875 228.273438 Z M 239.03125 328.773438 C 249.875 308.617188 258.097656 287.019531 263.972656 264.425781 L 317.292969 264.425781 C 299.851562 294.339844 272.199219 317.386719 239.03125 328.773438 Z M 270.933594 228.273438 C 272.378906 216.4375 273.460938 204.417969 273.460938 192.125 C 273.460938 179.835938 272.46875 167.8125 270.933594 155.976562 L 331.933594 155.976562 C 334.917969 167.542969 336.726562 179.652344 336.726562 192.125 C 336.726562 204.597656 335.007812 216.707031 331.933594 228.273438 Z M 270.933594 228.273438 " fill-opacity="1" fill-rule="nonzero"/></g></svg>